<svg xmlns="http://www.w3.org/2000/svg" width="176.224" height="50.343" viewBox="0 0 176.224 50.343"><g transform="translate(88.112 25.172)"><g transform="translate(-88.112 -25.172)"><path d="M147.261,19.268a2.15,2.15,0,1,1-2.151-2.154A2.147,2.147,0,0,1,147.261,19.268Z" transform="translate(6.832 0.818)" fill="#095aa5"/><path d="M152.545,19.268a2.151,2.151,0,1,1-2.152-2.154A2.148,2.148,0,0,1,152.545,19.268Z" transform="translate(7.085 0.818)" fill="#6ebb20"/><path d="M157.824,19.268a2.15,2.15,0,1,1-2.152-2.154A2.149,2.149,0,0,1,157.824,19.268Z" transform="translate(7.337 0.818)" fill="#6ebb20"/><path d="M163.1,19.268a2.15,2.15,0,1,1-2.151-2.154A2.148,2.148,0,0,1,163.1,19.268Z" transform="translate(7.589 0.818)" fill="#095aa5"/><path d="M168.382,19.268a2.151,2.151,0,1,1-2.155-2.154A2.152,2.152,0,0,1,168.382,19.268Z" transform="translate(7.841 0.818)" fill="#095aa5"/><path d="M141.985,19.268a2.151,2.151,0,1,1-2.153-2.154A2.15,2.15,0,0,1,141.985,19.268Z" transform="translate(6.58 0.818)" fill="#095aa5"/><path d="M147.261,24.549A2.15,2.15,0,1,1,145.11,22.4,2.146,2.146,0,0,1,147.261,24.549Z" transform="translate(6.832 1.07)" fill="#095aa5"/><path d="M152.545,24.549a2.151,2.151,0,1,1-2.152-2.153A2.147,2.147,0,0,1,152.545,24.549Z" transform="translate(7.085 1.07)" fill="#6ebb20"/><path d="M157.824,24.549a2.15,2.15,0,1,1-2.152-2.153A2.148,2.148,0,0,1,157.824,24.549Z" transform="translate(7.337 1.07)" fill="#6ebb20"/><path d="M163.1,24.549A2.15,2.15,0,1,1,160.95,22.4,2.147,2.147,0,0,1,163.1,24.549Z" transform="translate(7.589 1.07)" fill="#095aa5"/><path d="M168.382,24.549a2.151,2.151,0,1,1-2.155-2.153A2.151,2.151,0,0,1,168.382,24.549Z" transform="translate(7.841 1.07)" fill="#095aa5"/><path d="M141.985,24.549a2.151,2.151,0,1,1-2.153-2.153A2.148,2.148,0,0,1,141.985,24.549Z" transform="translate(6.58 1.07)" fill="#095aa5"/><path d="M147.261,29.83a2.15,2.15,0,1,1-2.151-2.152A2.147,2.147,0,0,1,147.261,29.83Z" transform="translate(6.832 1.323)" fill="#6ebb20"/><path d="M152.545,29.83a2.151,2.151,0,1,1-2.152-2.152A2.148,2.148,0,0,1,152.545,29.83Z" transform="translate(7.085 1.323)" fill="#6ebb20"/><path d="M157.824,29.83a2.15,2.15,0,1,1-2.152-2.152A2.149,2.149,0,0,1,157.824,29.83Z" transform="translate(7.337 1.323)" fill="#6ebb20"/><path d="M163.1,29.83a2.15,2.15,0,1,1-2.151-2.152A2.148,2.148,0,0,1,163.1,29.83Z" transform="translate(7.589 1.323)" fill="#6ebb20"/><path d="M168.382,29.83a2.151,2.151,0,1,1-2.155-2.152A2.152,2.152,0,0,1,168.382,29.83Z" transform="translate(7.841 1.323)" fill="#6ebb20"/><path d="M141.985,29.83a2.151,2.151,0,1,1-2.153-2.152A2.15,2.15,0,0,1,141.985,29.83Z" transform="translate(6.58 1.323)" fill="#6ebb20"/><path d="M147.261,35.113a2.15,2.15,0,1,1-2.151-2.154A2.146,2.146,0,0,1,147.261,35.113Z" transform="translate(6.832 1.575)" fill="#6ebb20"/><path d="M152.545,35.113a2.151,2.151,0,1,1-2.152-2.154A2.147,2.147,0,0,1,152.545,35.113Z" transform="translate(7.085 1.575)" fill="#6ebb20"/><path d="M157.824,35.113a2.15,2.15,0,1,1-2.152-2.154A2.148,2.148,0,0,1,157.824,35.113Z" transform="translate(7.337 1.575)" fill="#6ebb20"/><path d="M163.1,35.113a2.15,2.15,0,1,1-2.151-2.154A2.147,2.147,0,0,1,163.1,35.113Z" transform="translate(7.589 1.575)" fill="#6ebb20"/><path d="M168.382,35.113a2.151,2.151,0,1,1-2.155-2.154A2.151,2.151,0,0,1,168.382,35.113Z" transform="translate(7.841 1.575)" fill="#6ebb20"/><path d="M141.985,35.113a2.151,2.151,0,1,1-2.153-2.154A2.148,2.148,0,0,1,141.985,35.113Z" transform="translate(6.58 1.575)" fill="#6ebb20"/><path d="M147.261,40.394a2.15,2.15,0,1,1-2.151-2.154A2.148,2.148,0,0,1,147.261,40.394Z" transform="translate(6.832 1.827)" fill="#095aa5"/><path d="M152.545,40.394a2.151,2.151,0,1,1-2.152-2.154A2.149,2.149,0,0,1,152.545,40.394Z" transform="translate(7.085 1.827)" fill="#6ebb20"/><path d="M157.824,40.394a2.15,2.15,0,1,1-2.152-2.154A2.15,2.15,0,0,1,157.824,40.394Z" transform="translate(7.337 1.827)" fill="#6ebb20"/><path d="M163.1,40.394a2.15,2.15,0,1,1-2.151-2.154A2.149,2.149,0,0,1,163.1,40.394Z" transform="translate(7.589 1.827)" fill="#095aa5"/><path d="M168.382,40.394a2.151,2.151,0,1,1-2.155-2.154A2.153,2.153,0,0,1,168.382,40.394Z" transform="translate(7.841 1.827)" fill="#095aa5"/><path d="M141.985,40.394a2.151,2.151,0,1,1-2.153-2.154A2.15,2.15,0,0,1,141.985,40.394Z" transform="translate(6.58 1.827)" fill="#095aa5"/><path d="M147.261,45.675a2.15,2.15,0,1,1-2.151-2.153A2.148,2.148,0,0,1,147.261,45.675Z" transform="translate(6.832 2.08)" fill="#095aa5"/><path d="M152.545,45.675a2.151,2.151,0,1,1-2.152-2.153A2.149,2.149,0,0,1,152.545,45.675Z" transform="translate(7.085 2.08)" fill="#6ebb20"/><path d="M157.824,45.675a2.15,2.15,0,1,1-2.152-2.153A2.15,2.15,0,0,1,157.824,45.675Z" transform="translate(7.337 2.08)" fill="#6ebb20"/><path d="M163.1,45.675a2.15,2.15,0,1,1-2.151-2.153A2.149,2.149,0,0,1,163.1,45.675Z" transform="translate(7.589 2.08)" fill="#095aa5"/><path d="M168.382,45.675a2.151,2.151,0,1,1-2.155-2.153A2.153,2.153,0,0,1,168.382,45.675Z" transform="translate(7.841 2.08)" fill="#095aa5"/><path d="M141.985,45.675a2.151,2.151,0,1,1-2.153-2.153A2.15,2.15,0,0,1,141.985,45.675Z" transform="translate(6.58 2.08)" fill="#095aa5"/><g transform="translate(46.81 16.604)"><path d="M62.266,38.052v-22.2H59.79a2.288,2.288,0,0,0-2.284,2.288h0v6.426h-.068A5.98,5.98,0,0,0,52.195,21.7a6.535,6.535,0,0,0-5.752,2.959A11.08,11.08,0,0,0,44.675,31.1a13.238,13.238,0,0,0,.851,4.973,7.593,7.593,0,0,0,2.79,3.456,7.287,7.287,0,0,0,4.254,1.347,5.516,5.516,0,0,0,5-2.791h.069v2.243h2.341A2.285,2.285,0,0,0,62.266,38.052Zm-5.842-2.457a3.577,3.577,0,0,1-5.589-.034,6.339,6.339,0,0,1-1.263-4.156q0-5.583,4.091-5.584,4.052,0,4.055,5.857A5.707,5.707,0,0,1,56.424,35.595Z" transform="translate(-44.675 -15.847)" fill="#095aa5"/></g><g transform="translate(0.001 16.308)"><path d="M24.051,40.338V17.875a2.316,2.316,0,0,0-2.315-2.311H16.575L12.128,33.721H12.06L7.616,15.564h-5.3A2.314,2.314,0,0,0,0,17.879H0V40.338H2.55a2.315,2.315,0,0,0,2.312-2.316h0V23.453L9.445,40.338h5.1l4.647-16.953V38.022A2.314,2.314,0,0,0,21.5,40.335v0Z" transform="translate(-0.001 -15.564)" fill="#095aa5"/></g><g transform="translate(67.531 16.961)"><path d="M69.124,18.474a2.286,2.286,0,1,1-2.285-2.287A2.286,2.286,0,0,1,69.124,18.474Z" transform="translate(-64.446 -16.187)" fill="#6ebb20"/><g transform="translate(0 5.985)"><path d="M66.737,21.9a2.284,2.284,0,0,0-2.283,2.284h0V40.035h2.516a2.288,2.288,0,0,0,2.285-2.287h0V21.9Z" transform="translate(-64.451 -21.899)" fill="#095aa5"/></g></g><g transform="translate(94.122 16.961)"><path d="M94.4,18.474a2.284,2.284,0,1,1-2.283-2.287A2.283,2.283,0,0,1,94.4,18.474Z" transform="translate(-89.829 -16.187)" fill="#6ebb20"/><g transform="translate(0.103 5.985)"><path d="M92.444,40.035a2.287,2.287,0,0,0,2.284-2.287h0V21.9H92.213a2.286,2.286,0,0,0-2.284,2.284h0V40.035Z" transform="translate(-89.927 -21.899)" fill="#095aa5"/></g></g><g transform="translate(26.989 22.285)"><path d="M36.918,34.762l-.014.02Z" transform="translate(-25.225 -20.624)" fill="#095aa5"/><path d="M37.43,35.435a3.936,3.936,0,0,1-.744.627,4.005,4.005,0,0,1-2.074.55,3.73,3.73,0,0,1-2.656-1.027A5.227,5.227,0,0,1,30.525,32.1H43.018q0-10.829-8.508-10.83a8.315,8.315,0,0,0-6.451,2.505,9.505,9.505,0,0,0-2.3,6.691q0,9.916,9.089,9.917a8.359,8.359,0,0,0,5.006-1.518,7.784,7.784,0,0,0,2.929-4.276H38.84A2.225,2.225,0,0,0,37.43,35.435Zm-5.371-9.326a3.213,3.213,0,0,1,2.35-.988,3.422,3.422,0,0,1,2.468,1.052,4.494,4.494,0,0,1,1.245,2.894H30.7A4.934,4.934,0,0,1,32.059,26.109Z" transform="translate(-25.758 -21.269)" fill="#095aa5"/></g><g transform="translate(75.199 22.285)"><path d="M83.412,34.17a5.307,5.307,0,0,1-.94,1.448,3.318,3.318,0,0,1-2.233.836q-3.572-.069-3.571-5.922a6.967,6.967,0,0,1,.85-3.506,3.286,3.286,0,0,1,2.961-1.771,2.956,2.956,0,0,1,2.042.8,3.686,3.686,0,0,1,1.124,2.2h4.8a6.886,6.886,0,0,0-2.587-5.211,8.7,8.7,0,0,0-5.618-1.773,7.679,7.679,0,0,0-6.5,2.893,11.308,11.308,0,0,0-1.973,7.019,10.13,10.13,0,0,0,2.041,6.638,7.628,7.628,0,0,0,6.264,2.661,8.577,8.577,0,0,0,5.6-2,7.75,7.75,0,0,0,2.737-5.159H84.82A1.6,1.6,0,0,0,83.412,34.17Z" transform="translate(-71.769 -21.269)" fill="#095aa5"/></g><g transform="translate(102.722 17.894)"><path d="M110.964,21.958H102.8v-4.88H100.32a2.285,2.285,0,0,0-2.283,2.285h0V33.317a9.363,9.363,0,0,0,.714,3.712,5.929,5.929,0,0,0,2.755,2.826,8.41,8.41,0,0,0,3.94.921,7.012,7.012,0,0,0,5.439-2.109A7.205,7.205,0,0,0,112.48,35c.059-.3.1-.651.141-1.031h-3.3a1.489,1.489,0,0,0-1.41.846,3.9,3.9,0,0,1-.555,1.071,2.328,2.328,0,0,1-1.828.712,2.287,2.287,0,0,1-2.508-1.632,7.848,7.848,0,0,1-.216-2.113V25.4h5.881a2.286,2.286,0,0,0,2.284-2.284Z" transform="translate(-98.037 -17.078)" fill="#095aa5"/></g><g transform="translate(119.382 22.562)"><path d="M128.78,21.533h-3.3V31.6a3.153,3.153,0,0,1-1.022,2.414,3.747,3.747,0,0,1-2.656.955q-3.068,0-3.067-3.369V21.533H116.22a2.286,2.286,0,0,0-2.282,2.285h0v8.5a6.156,6.156,0,0,0,2.143,4.977,6.858,6.858,0,0,0,4.534,1.566,6.624,6.624,0,0,0,3.014-.684,3.745,3.745,0,0,0,1.856-1.91V41.11a4.037,4.037,0,0,1-1.189,3.023,3.783,3.783,0,0,1-2.626,1.02,3.023,3.023,0,0,1-2.245-.885,5.191,5.191,0,0,1-.957-1.876,1.434,1.434,0,0,0-1.41-.848h-3.119a7.339,7.339,0,0,0,2.487,5.86,8.234,8.234,0,0,0,5.512,1.91,8.77,8.77,0,0,0,5.72-1.944,7.17,7.17,0,0,0,2.589-5.784V21.533Z" transform="translate(-113.937 -21.533)" fill="#095aa5"/></g><g transform="translate(55.523 0.304)"><path d="M55.118,1.355A1.064,1.064,0,1,1,54.055.29,1.064,1.064,0,0,1,55.118,1.355Z" transform="translate(-52.991 -0.29)" fill="#6ebb20"/><g transform="translate(0.047 2.786)"><path d="M54.207,11.39a1.065,1.065,0,0,0,1.064-1.066h0V2.949H54.1a1.064,1.064,0,0,0-1.065,1.064h0V11.39Z" transform="translate(-53.036 -2.949)" fill="#095aa5"/></g></g><g transform="translate(46.317 2.784)"><path d="M49.622,8.659a2.473,2.473,0,0,1-.437.674,1.541,1.541,0,0,1-1.039.391q-1.664-.035-1.662-2.756a3.239,3.239,0,0,1,.4-1.632,1.526,1.526,0,0,1,1.378-.825,1.377,1.377,0,0,1,.951.371A1.716,1.716,0,0,1,49.73,5.9h2.234a3.208,3.208,0,0,0-1.2-2.426,4.058,4.058,0,0,0-2.615-.821A3.565,3.565,0,0,0,45.123,4,5.245,5.245,0,0,0,44.2,7.268a4.714,4.714,0,0,0,.948,3.089,3.558,3.558,0,0,0,2.917,1.24,4,4,0,0,0,2.6-.93,3.6,3.6,0,0,0,1.274-2.4h-1.67A.744.744,0,0,0,49.622,8.659Z" transform="translate(-44.204 -2.657)" fill="#095aa5"/></g><path d="M70.827,6.122l-1.115-.243a3.891,3.891,0,0,1-1.132-.307.518.518,0,0,1-.226-.4.559.559,0,0,1,.39-.5,1.907,1.907,0,0,1,.79-.146,3.413,3.413,0,0,1,1.361.355,1.546,1.546,0,0,0,.157.079c.257.117.751.287,1.029.012l1.106-1.028c-.226-.159-.453-.3-.695-.453a6.323,6.323,0,0,0-3.055-.807A3.447,3.447,0,0,0,66.22,4.248a2.61,2.61,0,0,0-.355,1.259,2.183,2.183,0,0,0,.258,1.051c.421.841,1.246,1.244,3.007,1.536.905.145,1.649.21,1.665.791,0,.47-.5.681-.873.76a2.8,2.8,0,0,1-.615.083,3.3,3.3,0,0,1-1.735-.57c-.025-.019-.083-.063-.161-.111-.25-.159-.715-.376-1.025-.066l-1.119,1a6.238,6.238,0,0,0,1,.793,6.235,6.235,0,0,0,3.088.839,4.323,4.323,0,0,0,3.572-1.552,2.536,2.536,0,0,0,.4-1.406C73.333,7.092,72.153,6.462,70.827,6.122Z" transform="translate(3.119 0.128)" fill="#095aa5"/><path d="M33.959,3.423a2.813,2.813,0,0,0-2.236-.949,3.854,3.854,0,0,0-1.968.548,5.047,5.047,0,0,0-.616.467,3.973,3.973,0,0,0-.7-.6A3.563,3.563,0,0,0,26.7,2.474a3.092,3.092,0,0,0-2.017.682,2.758,2.758,0,0,0-.434.451l-.017-.9H22.809A1.108,1.108,0,0,0,21.7,3.814v7.6h1.426A1.111,1.111,0,0,0,24.235,10.3h0V6.443a1.961,1.961,0,0,1,.55-1.652,1.192,1.192,0,0,1,.735-.217,1.3,1.3,0,0,1,.749.217c.385.251.484.617.5,1.451v5.171h2.55V6.676a2.954,2.954,0,0,1,.184-1.5,1.27,1.27,0,0,1,1.134-.619,1.134,1.134,0,0,1,.967.5,3.494,3.494,0,0,1,.234,1.784V10.3a1.108,1.108,0,0,0,1.11,1.108v0h1.442V5.741C34.392,4.49,34.376,3.94,33.959,3.423Z" transform="translate(1.037 0.118)" fill="#095aa5"/><path d="M1.083,0A1.083,1.083,0,0,0,0,1.084H0V11.507H1.785a1.084,1.084,0,0,0,1.082-1.084h0V6.845H5.44A1.084,1.084,0,0,0,6.522,5.762h0V4.629H2.869V2.2H7.752A1.084,1.084,0,0,0,8.834,1.117h0V0Z" fill="#095aa5"/><path d="M19.508,2.977a3.189,3.189,0,0,0-1.014.649V2.712H16.9a1.105,1.105,0,0,0-.886,1.082h0v7.611h1.439a1.105,1.105,0,0,0,1.1-1.105h0V6.516c0-.646.117-1.079.8-1.312a4.745,4.745,0,0,1,.8-.183l.053-.007h0S21,4.869,21,4.242V2.627A4.917,4.917,0,0,0,19.508,2.977Z" transform="translate(0.765 0.126)" fill="#095aa5"/><path d="M64.234,4.174c-.568-1.219-2.177-1.5-3.364-1.5a7.9,7.9,0,0,0-1.089.066,3.467,3.467,0,0,0-1.917.86,2.475,2.475,0,0,0-.682,1.707h1.536a1.528,1.528,0,0,0,1.139-.481,1.485,1.485,0,0,0,.125-.149A1.357,1.357,0,0,1,61,4.321c.911,0,.943.73.96,1.024v.472a18.7,18.7,0,0,0-3.4.8,2.778,2.778,0,0,0-1.74,2.42,2.71,2.71,0,0,0,.278,1.187,2.59,2.59,0,0,0,2.5,1.4,3.634,3.634,0,0,0,2.08-.635c.179-.112.342-.226.52-.356v.764h1.131a1.08,1.08,0,0,0,1.08-1.08h0V5.115A2.319,2.319,0,0,0,64.234,4.174Zm-3.04,5.265a1.753,1.753,0,0,1-.959.342.954.954,0,0,1-.86-.472.984.984,0,0,1-.1-.389c0-.326.161-.683.78-.944a2.45,2.45,0,0,1,.293-.113l1.608-.536A2.3,2.3,0,0,1,61.194,9.439Z" transform="translate(2.716 0.128)" fill="#095aa5"/><path d="M42.879,4.174c-.569-1.219-2.178-1.5-3.364-1.5a7.888,7.888,0,0,0-1.089.066,3.475,3.475,0,0,0-1.919.86,2.5,2.5,0,0,0-.682,1.707h1.536a1.535,1.535,0,0,0,1.14-.481,1.276,1.276,0,0,0,.124-.149,1.362,1.362,0,0,1,1.019-.361c.911,0,.943.73.959,1.024v.472a18.684,18.684,0,0,0-3.4.8,2.778,2.778,0,0,0-1.74,2.42,2.724,2.724,0,0,0,.277,1.187,2.593,2.593,0,0,0,2.5,1.4,3.634,3.634,0,0,0,2.08-.635c.179-.112.343-.226.522-.356v.764h1.13a1.079,1.079,0,0,0,1.078-1.08h0V5.115A2.322,2.322,0,0,0,42.879,4.174Zm-3.04,5.265a1.76,1.76,0,0,1-.959.342.956.956,0,0,1-.861-.472.984.984,0,0,1-.1-.389c0-.326.161-.683.78-.944a2.521,2.521,0,0,1,.293-.113L40.6,7.327A2.294,2.294,0,0,1,39.839,9.439Z" transform="translate(1.695 0.128)" fill="#095aa5"/><path d="M14.405,4.174c-.57-1.219-2.178-1.5-3.363-1.5a7.893,7.893,0,0,0-1.09.066,3.478,3.478,0,0,0-1.92.86,2.493,2.493,0,0,0-.681,1.707H8.888a1.529,1.529,0,0,0,1.138-.481,1.569,1.569,0,0,0,.126-.149,1.354,1.354,0,0,1,1.017-.361c.911,0,.944.73.96,1.024v.472a18.638,18.638,0,0,0-3.4.8,2.778,2.778,0,0,0-1.74,2.42,2.724,2.724,0,0,0,.277,1.187,2.592,2.592,0,0,0,2.5,1.4,3.631,3.631,0,0,0,2.08-.635c.18-.112.342-.226.521-.356v.764H13.5a1.08,1.08,0,0,0,1.079-1.08h0V5.115A2.337,2.337,0,0,0,14.405,4.174ZM11.366,9.439a1.764,1.764,0,0,1-.96.342.956.956,0,0,1-.861-.472,1,1,0,0,1-.1-.389c0-.326.162-.683.781-.944a2.492,2.492,0,0,1,.291-.113l1.609-.536A2.3,2.3,0,0,1,11.366,9.439Z" transform="translate(0.334 0.128)" fill="#095aa5"/></g></g></svg>